<svg width="18" height="19" viewBox="0 0 15 15" fill="none" xmlns="http://www.w3.org/2000/svg">
<path d="M13.9758 6.91407L8.8084 3.6252C8.70232 3.55802 8.58018 3.52046 8.45468 3.51644C8.32918 3.51242 8.20489 3.54209 8.09473 3.60235C7.98509 3.66114 7.89358 3.74874 7.83008 3.85572C7.76657 3.96269 7.73348 4.08498 7.73438 4.20938V6.82208L2.71465 3.6252C2.60857 3.55802 2.48643 3.52046 2.36093 3.51644C2.23543 3.51242 2.11114 3.54209 2.00098 3.60235C1.89134 3.66114 1.79983 3.74874 1.73633 3.85572C1.67282 3.96269 1.63973 4.08498 1.64063 4.20938V10.7906C1.63973 10.915 1.67282 11.0373 1.73633 11.1443C1.79983 11.2513 1.89134 11.3389 2.00098 11.3977C2.11114 11.4579 2.23543 11.4876 2.36093 11.4836C2.48643 11.4796 2.60857 11.442 2.71465 11.3748L7.73438 8.17794V10.7906C7.73348 10.915 7.76657 11.0373 7.83008 11.1443C7.89358 11.2513 7.98509 11.3389 8.09473 11.3977C8.20489 11.4579 8.32918 11.4876 8.45468 11.4836C8.58018 11.4796 8.70232 11.442 8.8084 11.3748L13.9758 8.08595C14.0742 8.02348 14.1552 7.93719 14.2113 7.83506C14.2674 7.73294 14.2968 7.6183 14.2968 7.50177C14.2968 7.38523 14.2674 7.27059 14.2113 7.16847C14.1552 7.06634 14.0742 6.98005 13.9758 6.91759V6.91407ZM7.63008 7.68692L2.46094 10.9793C2.42618 11.0016 2.38606 11.014 2.3448 11.0154C2.30355 11.0167 2.26269 11.0069 2.22656 10.9869C2.19094 10.9681 2.16118 10.9398 2.14052 10.9052C2.11986 10.8706 2.10908 10.8309 2.10938 10.7906V4.20938C2.10908 4.16907 2.11986 4.12946 2.14052 4.09485C2.16118 4.06024 2.19094 4.03196 2.22656 4.01309C2.26084 3.99413 2.29931 3.98406 2.33848 3.9838C2.38276 3.98388 2.42608 3.99669 2.46328 4.02071L7.63008 7.31134C7.66204 7.33136 7.68839 7.35918 7.70666 7.39219C7.72492 7.42519 7.73451 7.46229 7.73451 7.50001C7.73451 7.53773 7.72492 7.57483 7.70666 7.60783C7.68839 7.64083 7.66204 7.66865 7.63008 7.68868V7.68692ZM13.7238 7.68692L8.55469 10.9793C8.51993 11.0016 8.47981 11.014 8.43855 11.0154C8.3973 11.0167 8.35644 11.0069 8.32032 10.9869C8.28469 10.9681 8.25493 10.9398 8.23427 10.9052C8.21361 10.8706 8.20284 10.8309 8.20313 10.7906V4.20938C8.20284 4.16907 8.21361 4.12946 8.23427 4.09485C8.25493 4.06024 8.28469 4.03196 8.32032 4.01309C8.35459 3.99413 8.39306 3.98406 8.43223 3.9838C8.47651 3.98388 8.51983 3.99669 8.55703 4.02071L13.7238 7.31134C13.7558 7.33136 13.7821 7.35918 13.8004 7.39219C13.8187 7.42519 13.8283 7.46229 13.8283 7.50001C13.8283 7.53773 13.8187 7.57483 13.8004 7.60783C13.7821 7.64083 13.7558 7.66865 13.7238 7.68868V7.68692Z" fill="black"/>
</svg> 